<?xml version="1.0" encoding="UTF-8"?>
<svg id="_레이어_2" data-name="레이어 2" xmlns="http://www.w3.org/2000/svg" viewBox="0 0 367.68 60.59">
  <defs>
    <style>
      .cls-1 {
        fill: #f8b500;
      }

      .cls-1, .cls-2 {
        stroke-width: 0px;
      }

      .cls-2 {
        fill: #7c7266;
      }
    </style>
  </defs>
  <g id="_·_ÀÌ_î_1" data-name="·¹ÀÌ¾î_1">
    <g>
      <path class="cls-1" d="M83.69,31.09l-.74-.47c-2.51-2.5-6-3.59-10.67-3.31-3.89.24-6.97,1.78-9.33,3.21,0-.04,0-.07,0-.11,0-1.22.14-2.54.27-3.82.13-1.3.28-2.63.28-3.88s-.14-2.5-.59-3.54c-.11-.27-.36-.42-.67-.42-1.26.03-3.71.89-4.31,1.41,0,0-.32.71-.32.71-.02,1.39-.33,5.28-.64,5.75.01-.02-.16.47-.16.47-.53,5.55-.54,10.42-.05,14.61.06.42.86,1.05,1.49,1.28.68.25,2.82-.32,4.05-.78-.02,0,.46-.07.46-.07.39-.04.62-.37.6-.81,0,0,.03-1.2.03-1.2.89-3.61,4.49-7.93,8.74-8.58,2.41-.38,4.31.24,5.81,1.87.2.29.64,2.9-.94,5.88-1.18,2.21-3.54,4.08-6.65,5.24-2.94,1.12-6.18,1.57-10.17,1.43-.17-.11-3.74-2.53-3.74-2.53-3.17-2.23-7.11-5-10.68-6.35-.63-.24-1.75-1.18-2.43-1.73l-.37-.3c-2.06-1.65-5.98-4.26-9.12-6.36,0,0-1.42-.95-1.69-1.14,0-.12,0-.36,0-.36.09-.1,2.07-1.28,2.07-1.28,2.77-1.62,4.05-2.41,4.32-2.82-.06.07.37-.22.37-.22.03-.01,6.86-3.88,6.86-3.88,6.59-3.62,14.05-7.73,17.97-11.78,0,0,.19-.62.19-.62l.09-.55c.26-.87.27-1.53.06-2.3-.06-.22-.26-.48-.53-.52-3.06-.31-7.01,1.53-10.6,4.9-.81.76-1.49,1.13-2.21,1.52l-.55.31c-3.96,2.25-12.88,7.79-17.56,10.78.31-5.02,1.24-12.17,2.38-18.12l-.13-.71s-.48-.9-.48-.9l-.36-.64-.1-.03c-.93-.47-1.69-.28-2.25-.14l-.93.34-1.25.45c-.25.05-.42.2-.51.44-2.23,5.39-4.09,14.26-4.53,21.35-4.46-2.83-8.58-4.87-10.6-5.86l-.06-.03-.24-.05c-.73-.09-1.61-.63-2.46-1.15-.09-.05-1.7-1.1-1.7-1.1l-2.59-1.66s-.68-.16-.68-.16c-1.11.19-3.25,1.63-3.88,2.61-.08.13-.12.27-.12.41,0,.21.06.41.12.62l.11.53.12.32c1.24,1.27,4.38,3.39,7.45,5.04l3.56,1.89,5.45,2.98s.93.74.93.74l.64.37s.07.04.12.07c-1.45.97-9.92,6.62-9.92,6.62l-5.21,3.46c-.49.34-2.55,1.26-3.01,1.44-1.13.46-1.99,1.17-2.34,1.93l-.14.3.14.2.4.3s.53.35.53.35l.58.39s.54.09.54.09c.92.03,2.27-.49,4.81-1.6,2.33-1.03,8.66-4.85,11.37-6.48l1.15-.69c.48.04,1-.36,1.47-.72.54-.43,1.72-1.16,2.44-1.48.02,0,.43-.24.82-.45,0,.12,0,.31,0,.31.12,8.28.59,14.3,1.5,18.94v.08s.1.19.1.19c.44.65.95,2.62,1.4,4.35l1.03,3.46s.29.32.29.32c.59.4,2.38,1.09,3.58.95l.3-.04.19-.42c.1-.52.14-1.03.14-1.59,0-.63-.05-1.33-.1-2.18l-.08-1.25c-.38-5.78-.76-14.13-.76-19.68v-.44c.99.61,5.28,3.32,5.28,3.32,7.31,4.74,18.36,11.91,25.03,13.8.35.1.71.02.97-.22,0-.01,1.03-.66,1.03-.66l.19-.08c.38-.18.64-.83.68-1.53,5.63-.28,13.47-2.45,17.67-7.73,1.62-2.05,2.36-4.55,2.36-6.69,0-1.76-.49-3.28-1.37-4.11"/>
      <polygon class="cls-2" points="220.36 26.28 220.36 32.75 235.53 32.75 235.53 49.58 230.35 49.58 230.35 37.23 199.9 37.23 199.9 32.75 215.19 32.75 215.19 26.28 196.72 26.28 196.72 21.81 230.11 21.81 230.11 12.86 200.46 12.86 200.46 8.41 235.3 8.41 235.3 21.78 239.01 21.78 239.01 26.28 220.36 26.28"/>
      <path class="cls-2" d="M263.61,25.22h-14.23v-11.7h14.23v11.7ZM268.76,9.02h-24.54v20.72h24.54V9.02Z"/>
      <polygon class="cls-2" points="281.45 49.42 248.89 49.42 248.89 34.19 254.08 34.19 254.08 44.93 281.45 44.93 281.45 49.42"/>
      <rect class="cls-2" x="275.9" y="8.03" width="5.16" height="27.2"/>
      <polygon class="cls-2" points="327.92 34.18 327.92 29.71 285.66 29.71 285.66 34.18 290.23 34.18 290.23 49.41 324.04 49.41 324.04 44.94 295.39 44.94 295.39 34.18 327.92 34.18"/>
      <path class="cls-2" d="M306.79,22.69c-5.35,0-9.67-1.85-9.67-5.99s4.32-5.97,9.67-5.97,9.67,1.88,9.67,5.97-4.34,5.99-9.67,5.99M306.79,6.01c-8.34,0-15.11,3.53-15.11,10.7s6.77,10.71,15.11,10.71,15.12-3.58,15.12-10.71-6.77-10.7-15.12-10.7"/>
      <polygon class="cls-2" points="354.62 28.42 359.64 28.42 359.64 20.25 362.51 20.25 362.51 29.74 367.54 29.74 367.54 8.03 362.51 8.03 362.51 15.94 359.64 15.94 359.64 8.03 354.62 8.03 354.62 28.42"/>
      <path class="cls-2" d="M352.31,9.86h-9.14v-3.64h-5.16v3.64h-9.21v4.38h3.68c-1.83,1.4-2.96,3.44-2.96,6.14,0,5.63,4.94,8.47,11.03,8.47s11.03-2.85,11.03-8.47c0-2.7-1.13-4.74-2.96-6.14h3.68v-4.38ZM340.56,24.12c-3.16,0-5.71-1.36-5.71-4.43s2.55-4.45,5.71-4.45,5.7,1.4,5.7,4.45-2.56,4.43-5.7,4.43"/>
      <path class="cls-2" d="M352.77,46.56c-5.28,0-9.56-1.85-9.56-6.01s4.28-6,9.56-6,9.56,1.88,9.56,6-4.28,6.01-9.56,6.01M352.79,29.93c-8.24,0-14.91,3.5-14.91,10.64s6.66,10.63,14.91,10.63,14.9-3.56,14.9-10.63-6.67-10.64-14.9-10.64"/>
      <path class="cls-2" d="M149.01,8.48h20.25c9.63,0,14.67,3.2,14.67,10.19,0,4.97-3.47,8.4-8.09,9.33v.17c6.63.79,9.76,5.13,9.76,10.04,0,6.16-4.5,11.47-15.7,11.47h-20.89V8.48ZM155.58,25.84h13.36c4.97,0,8.63-1.88,8.63-6.27,0-3.83-1.81-6.39-9.39-6.39h-12.61v12.66ZM155.58,45.01h12.95c8.04,0,10.17-3.14,10.17-7.13,0-4.73-3.27-7.35-10.52-7.35h-12.61v14.49Z"/>
      <polygon class="cls-2" points="104.45 8.48 111.03 8.48 111.03 26.92 133.17 8.48 142.49 8.48 119.09 27.09 144.43 49.69 135.12 49.69 111.03 27.61 111.03 49.69 104.45 49.69 104.45 8.48"/>
    </g>
  </g>
</svg>