<svg xmlns="http://www.w3.org/2000/svg" width="1451.274pt" height="300pt" viewBox="0 0 1451.2741 300"><path fill="#d71920" d="m14.177 995.094-61.19 93.055-61.174-93.055h-172.401v232.962h135.639v-99.444l58.91 88.867h78.077l58.92-88.867v99.444H186.56V995.094H14.177" style="stroke-width:8.87342" transform="matrix(1.05751 0 0 1.05751 321.462 -1023.423)"/><path fill="#fff" d="m83.008 1146.5 5.005-7.524c2.183-3.283 3.31-6.46 3.336-9.441.027-5.13-3.15-9.841-9.45-14.056-5.581-3.718-10.24-4.916-14.428-4.073-3.47.693-7.418 3.683-10.018 7.587-10.684 16.017-11.251 16.824-11.278 16.842l52.593 34.65h-.008l6.087-9.68zm-3.3-10.221-3.736 5.492-16.239-10.843 3.168-5.067c3.186-4.72 8.235-4.126 12.982-.719 3.665 2.653 6.274 7.498 3.824 11.136M119.904 1121.637l-44.73-29.468-6.265 9.539 52.433 34.757 13.984-21.394-7.897-5.129-7.525 11.695M142.922 1071.36l-37.295-24.854-6.274 9.557 36.594 24.171c3.47 2.307 7.001 5.147 6.975 8.758-.018 1.331-.497 2.68-1.447 4.126-1.136 1.722-2.475 2.707-4.1 3.026-2.475.497-5.572-.568-9.769-3.399l-36.62-24.41-6.247 9.645 37.366 24.642c10.48 6.974 19.3 5.244 26.212-5.13 2.653-3.974 4.01-7.772 4.046-11.34.027-5.598-3.141-10.576-9.441-14.791M175.256 1049.186c-.807-4.02-3.682-7.622-8.802-11.03-9.095-6.078-16.797-2.626-23.586.426-5.43 2.44-10.559 4.739-15.324 1.562-2.44-1.624-3.736-3.168-4.064-4.854-.284-1.41.107-2.848 1.171-4.472.914-1.358 1.952-2.139 3.195-2.37 2.458-.496 5.27 1.447 7.977 3.284h.035l6.088-9.415c-5.307-3.594-9.761-5.173-13.55-4.534-3.638.621-6.957 3.248-10.16 8.057-3.63 5.44-5.005 10.054-4.197 14.1.763 3.833 3.47 7.178 8.527 10.56 8.616 5.776 16.567 2.475 23.586-.436 5.59-2.324 10.87-4.525 15.386-1.5 2.733 1.829 4.117 3.426 4.455 5.183.266 1.357-.09 2.75-1.1 4.232-1.279 1.926-2.654 3-4.198 3.31-2.555.48-5.067-1.233-7.968-3.203l-1.163-.79-6.22 9.734c3.177 2.352 9.681 6.114 14.819 5.253 3.77-.63 7.178-3.318 10.426-8.199 2.91-4.365 5.741-9.547 4.667-14.898" style="stroke-width:8.87342" transform="matrix(1.05751 0 0 1.05751 321.462 -1023.423)"/><path fill="#231f20" d="M235.746 1215.464v-36.31h12.22l5.687 24.686h.089l6.042-24.686h11.82v36.31h-7.4v-28.022h-.107l-6.983 28.022h-7.232l-6.647-28.022h-.106v28.022h-7.383M279.04 1215.456h7.595v-36.301h-7.595zM294.337 1215.464v-36.31h7.587v30.267h11.367v6.043h-18.954M317.86 1215.456h7.596v-36.301h-7.595zM354.721 1179.155v6.025h-8.447v30.285h-7.587v-30.285h-8.457v-6.025h24.491M353.727 1215.464l10.063-36.31h10l9.858 36.31h-7.995l-2.014-8.057h-10.355l-2.068 8.057zm14.632-29.327h-.097l-3.47 15.689h7.241l-3.674-15.689M395.92 1215.464h-7.595v-36.31h14.029c5.182 0 8.5 3.319 8.5 9.495 0 4.64-1.81 8.1-6.735 8.908v.107c1.66.186 6.584.595 6.584 7.134 0 2.307.151 9.157.852 10.666h-7.436c-1.011-2.21-.807-4.685-.807-7.037 0-4.339.4-8.012-5.44-8.012h-1.952zm0-20.63h3.363c3.026 0 3.878-3.018 3.878-5.316 0-3.478-1.455-4.783-3.878-4.783h-3.363v10.098M423.632 1202.891l-9.495-23.736h8.288l5.43 15.324 5.795-15.324h7.729l-10.151 23.736v12.574h-7.596v-12.574M457.324 1215.464v-36.31h12.219l5.679 24.686h.098l6.043-24.686h11.82v36.31h-7.401v-28.022h-.107l-6.992 28.022h-7.232l-6.646-28.022h-.098v28.022h-7.383M525.153 1179.155v25.742c0 5.43-3.062 11.162-12.308 11.162-8.359 0-12.387-4.312-12.387-11.162v-25.742h7.596v25.236c0 4.472 1.907 6.247 4.676 6.247 3.318 0 4.836-2.21 4.836-6.247v-25.236h7.587M554.23 1179.155v6.025h-8.456v30.285h-7.595v-30.285h-8.448v-6.025h24.5M583.54 1179.155v25.742c0 5.43-3.062 11.162-12.317 11.162-8.35 0-12.378-4.312-12.378-11.162v-25.742h7.604v25.236c0 4.472 1.9 6.247 4.668 6.247 3.318 0 4.827-2.21 4.827-6.247v-25.236h7.596M588.216 1215.464l10.053-36.31h10.01l9.858 36.31h-7.995l-2.014-8.057h-10.355l-2.068 8.057zm14.632-29.327h-.097l-3.47 15.689h7.242l-3.674-15.689M623.017 1215.464v-36.31h7.596v30.267h11.358v6.043h-18.954M655.095 1215.464l10.062-36.31h10l9.859 36.31h-8.004l-2.014-8.057H664.65l-2.067 8.057zm14.623-29.327h-.098l-3.46 15.689h7.231l-3.674-15.689M689.834 1215.456h7.605v-36.301h-7.605zM705.23 1179.155h12.67c9.957 0 11.82 6.637 11.82 17.942 0 5.581.852 18.368-12.12 18.368h-12.37zm7.595 30.728h3.665c4.632 0 5.537-3.478 5.537-12.573 0-6.69 0-12.574-5.28-12.574h-3.922v25.147M745.595 1215.464l10.062-36.31h10l9.859 36.31h-7.995l-2.014-8.057H755.15l-2.067 8.057zm14.632-29.327h-.098l-3.47 15.689h7.241l-3.674-15.689M790.201 1216.06c-9.406 0-11.162-5.52-10.763-11.811h7.595c0 3.47.16 6.389 4.322 6.389 2.573 0 3.824-1.669 3.824-4.127 0-6.54-15.28-6.939-15.28-17.746 0-5.697 2.707-10.223 11.962-10.223 7.391 0 11.065 3.32 10.559 10.924h-7.392c0-2.724-.443-5.484-3.522-5.484-2.458 0-3.922 1.349-3.922 3.869 0 6.894 15.289 6.282 15.289 17.693 0 9.406-6.886 10.515-12.672 10.515M819.413 1216.06c-9.397 0-11.154-5.52-10.764-11.811h7.605c0 3.47.151 6.389 4.33 6.389 2.555 0 3.815-1.669 3.815-4.127 0-6.54-15.297-6.939-15.297-17.746 0-5.697 2.724-10.223 11.979-10.223 7.391 0 11.065 3.32 10.55 10.924h-7.391c0-2.724-.444-5.484-3.514-5.484-2.467 0-3.931 1.349-3.931 3.869 0 6.894 15.298 6.282 15.298 17.693 0 9.406-6.886 10.515-12.68 10.515M838.428 1197.31c0-9.601 0-18.767 12.52-18.767 12.521 0 12.521 9.166 12.521 18.767 0 9.494 0 18.75-12.52 18.75s-12.52-9.256-12.52-18.75m17.347 0c0-9.3-.55-13.328-4.827-13.328-4.268 0-4.827 4.029-4.827 13.328 0 9.3.559 13.328 4.827 13.328 4.277 0 4.827-4.029 4.827-13.328M870.408 1197.31c0-9.601 0-18.767 12.53-18.767 7.746 0 10.851 4.285 10.559 12.076h-7.445c0-4.827-.86-6.637-3.115-6.637-4.286 0-4.827 4.029-4.827 13.328 0 9.3.541 13.328 4.827 13.328 3.523 0 3.363-4.526 3.46-7.392h7.508c0 9.69-3.887 12.813-10.968 12.813-12.529 0-12.529-9.255-12.529-18.75M899.983 1215.456h7.587v-36.301h-7.587zM912.46 1215.464l10.053-36.31h10l9.867 36.31h-8.004l-1.996-8.057h-10.373l-2.068 8.057zm14.622-29.327h-.098l-3.46 15.689h7.232l-3.674-15.689M965.815 1179.155v6.025h-8.448v30.285h-7.586v-30.285h-8.448v-6.025h24.482M970.598 1215.456h7.596v-36.301h-7.596zM985.478 1197.31c0-9.601 0-18.767 12.52-18.767 12.521 0 12.521 9.166 12.521 18.767 0 9.494 0 18.75-12.52 18.75s-12.52-9.256-12.52-18.75m17.356 0c0-9.3-.56-13.328-4.836-13.328-4.268 0-4.827 4.029-4.827 13.328 0 9.3.559 13.328 4.827 13.328 4.277 0 4.836-4.029 4.836-13.328M1017.875 1215.464v-36.31h10.249l9.663 25.147h.098v-25.147h7.09v36.31h-10.01l-9.91-26.558h-.098v26.558h-7.08M779.9 1038.529v-12.085h25.44v-20.596h-76.197v20.596h25.432v12.085c0 45.024-23.985 61.865-32.965 68.6l16.14 16.3c21.2-11.916 29.55-35.111 29.478-35.413.027.088 7.028 22.192 28.99 35.973l16.424-16.096c-9.92-6.984-32.743-22.086-32.743-69.364M371.323 1040.543l-.098-36.46H237.734v21.899h106.818l.107 18.883c0 11.41-3.204 16.948-3.24 16.975H227.752v20.86h66.613v31.83h26.63v-31.83h63.941v-20.86h-17.356c.017-.213 3.744-9.07 3.744-21.297" style="stroke-width:8.87342" transform="matrix(1.05751 0 0 1.05751 321.462 -1023.423)"/><path fill="#231f20" d="M265.526 1101.513h-26.638v50.143h139.596v-20.382H265.526v-29.761M436.942 1101.3h-26.638v50.383h134.61V1131.3H436.942V1101.3M515.507 1112.036h26.639V999.513h-26.639zM673.631 1035.85c0 12.289-3.913 20.222-3.957 20.142h24.57c.08.088 6.966-8.2 6.966-23.337v-28.572H572.714v20.373h100.997l-.08 11.393" style="stroke-width:8.87342" transform="matrix(1.05751 0 0 1.05751 321.462 -1023.423)"/><path fill="#231f20" d="M642.858 1039.691h-25.68v22.033h-56.851v20.373h155.622v-20.373h-73.09v-22.033M822.234 1048.583h-23.106v20.39h23.106v84.112h23.541V999.3h-23.54v49.283M859.538 1153.156h23.541V999.3h-23.54zM1020.253 1153.156h24.384V999.3h-24.384zM637.073 1089.204c-50.17 0-68.024 14.694-68.024 33.72 0 19.015 17.854 33.71 68.024 33.71s68.032-14.695 68.032-33.71c0-19.026-17.862-33.72-68.032-33.72m0 47.66c-33.462 0-41.466-6.372-41.466-13.94 0-7.561 8.004-13.95 41.466-13.95 33.461 0 41.465 6.389 41.465 13.95 0 7.568-8.004 13.94-41.465 13.94M499.846 1042.557c0-23.656-18.998-45.484-52.105-45.484s-52.114 21.828-52.114 45.484c0 23.666 19.007 45.512 52.114 45.512s52.105-21.82 52.105-45.512m-78.557 0c0-12.094 7.623-24.499 26.452-24.499 18.812 0 26.452 12.405 26.452 24.5 0 12.12-7.64 24.508-26.452 24.508-18.83 0-26.452-12.387-26.452-24.509M968.646 1096.143c24.579-4.81 34.837-23.745 34.837-38.626 0-10.959-4.58-24.561-16.31-29.673h22.042v-19.814h-40.791v-16.877H944.04v16.877h-43.187v19.814h21.997c-11.154 6.212-15.76 18.573-15.76 29.673 0 15.75 10.915 34.917 37.1 39.034v19.708h-44.41v20.516l110.606.125V1115.7h-41.74zm-37.881-39.114c0-12.112 10.905-21.935 24.357-21.935 13.461 0 24.367 9.823 24.367 21.935 0 12.121-10.906 21.944-24.367 21.944-13.452 0-24.357-9.823-24.357-21.944" style="stroke-width:8.87342" transform="matrix(1.05751 0 0 1.05751 321.462 -1023.423)"/></svg>