<?xml version="1.0" encoding="UTF-8" standalone="no"?>
<!DOCTYPE svg PUBLIC "-//W3C//DTD SVG 1.1//EN" "http://www.w3.org/Graphics/SVG/1.1/DTD/svg11.dtd">
<!-- Created with Vectornator (http://vectornator.io/) -->
<svg height="100%" stroke-miterlimit="10" style="fill-rule:nonzero;clip-rule:evenodd;stroke-linecap:round;stroke-linejoin:round;" version="1.1" viewBox="0 0 170.1 56.7" width="100%" xml:space="preserve" xmlns="http://www.w3.org/2000/svg" xmlns:xlink="http://www.w3.org/1999/xlink">
<defs/>
<clipPath id="ArtboardFrame">
<rect height="56.7" width="170.1" x="0" y="0"/>
</clipPath>
<g clip-path="url(#ArtboardFrame)" id="레이어-1">
<g opacity="1">
<g opacity="1">
<path d="M158.08 40.5287C156.752 40.5287 155.528 40.1799 154.406 39.4824C153.284 38.7849 152.389 37.7275 151.719 36.3101C151.05 34.8928 150.715 33.1071 150.715 30.9532C150.715 28.6877 151.066 26.849 151.769 25.4373C152.472 24.0255 153.382 22.9904 154.498 22.3319C155.614 21.6735 156.786 21.3443 158.013 21.3443C158.94 21.3443 159.752 21.5033 160.449 21.8214C161.147 22.1394 161.733 22.5663 162.207 23.102C162.681 23.6377 163.036 24.2236 163.27 24.8597L163.37 24.8597L163.37 15.3512L170.1 15.3512L170.1 40.2943L163.437 40.2943L163.437 37.2141L163.27 37.2141C163.013 37.8502 162.645 38.4166 162.165 38.9132C161.685 39.4099 161.105 39.8033 160.424 40.0934C159.743 40.3836 158.962 40.5287 158.08 40.5287ZM160.558 35.3727C161.172 35.3727 161.702 35.1913 162.148 34.8286C162.595 34.4659 162.938 33.9553 163.178 33.2969C163.418 32.6384 163.538 31.8572 163.538 30.9532C163.538 30.0269 163.418 29.2317 163.178 28.5677C162.938 27.9037 162.595 27.3931 162.148 27.036C161.702 26.6788 161.172 26.5003 160.558 26.5003C159.944 26.5003 159.42 26.6788 158.984 27.036C158.549 27.3931 158.217 27.9037 157.988 28.5677C157.76 29.2317 157.645 30.0269 157.645 30.9532C157.645 31.8683 157.76 32.6579 157.988 33.322C158.217 33.986 158.549 34.4938 158.984 34.8453C159.42 35.1969 159.944 35.3727 160.558 35.3727Z" fill="#0d4abc" fill-rule="nonzero" opacity="1" stroke="none"/>
<path d="M148.773 15.3512L148.773 40.2943L142.043 40.2943L142.043 15.3512L148.773 15.3512Z" fill="#0d4abc" fill-rule="nonzero" opacity="1" stroke="none"/>
<path d="M132.702 40.2943L132.702 21.5786L139.432 21.5786L139.432 40.2943L132.702 40.2943ZM136.05 19.6702C135.135 19.6702 134.354 19.3689 133.707 18.7663C133.059 18.1636 132.736 17.4382 132.736 16.59C132.736 15.7307 133.059 15.0025 133.707 14.4054C134.354 13.8083 135.135 13.5098 136.05 13.5098C136.965 13.5098 137.747 13.8083 138.394 14.4054C139.041 15.0025 139.365 15.7251 139.365 16.5733C139.365 17.4326 139.041 18.1636 138.394 18.7663C137.747 19.3689 136.965 19.6702 136.05 19.6702Z" fill="#0d4abc" fill-rule="nonzero" opacity="1" stroke="none"/>
<path d="M123.361 32.125L123.361 21.5786L130.091 21.5786L130.091 40.2943L123.696 40.2943L123.696 36.7454L123.495 36.7454C123.093 37.9283 122.387 38.8574 121.377 39.5326C120.367 40.2078 119.165 40.5398 117.77 40.5287C116.464 40.5287 115.32 40.2301 114.338 39.6331C113.356 39.036 112.594 38.2101 112.053 37.1555C111.512 36.1009 111.241 34.8928 111.241 33.5312L111.241 21.5786L117.971 21.5786L117.971 32.125C117.971 33.0402 118.205 33.7628 118.674 34.2929C119.142 34.823 119.801 35.0825 120.649 35.0713C121.207 35.0713 121.687 34.9542 122.089 34.7198C122.491 34.4854 122.803 34.1478 123.026 33.707C123.249 33.2662 123.361 32.7388 123.361 32.125Z" fill="#0d4abc" fill-rule="nonzero" opacity="1" stroke="none"/>
<path d="M101.933 40.5287C101.063 40.5287 100.284 40.3836 99.5981 40.0934C98.9118 39.8033 98.3286 39.4099 97.8487 38.9132C97.3689 38.4166 97.0006 37.8502 96.7439 37.2141L96.5765 37.2141L96.5765 40.2943L89.9138 40.2943L89.9138 15.3512L96.6434 15.3512L96.6434 24.8597L96.7439 24.8597C96.9894 24.2236 97.3465 23.6377 97.8153 23.102C98.284 22.5663 98.8671 22.1394 99.5646 21.8214C100.262 21.5033 101.074 21.3443 102 21.3443C103.239 21.3443 104.414 21.6735 105.524 22.3319C106.635 22.9904 107.541 24.0255 108.244 25.4373C108.948 26.849 109.299 28.6877 109.299 30.9532C109.299 33.1071 108.964 34.8928 108.295 36.3101C107.625 37.7275 106.732 38.7849 105.616 39.4824C104.5 40.1799 103.273 40.5287 101.933 40.5287ZM99.4558 35.3727C100.081 35.3727 100.608 35.1969 101.038 34.8453C101.467 34.4938 101.797 33.986 102.025 33.322C102.254 32.6579 102.369 31.8683 102.369 30.9532C102.369 30.0269 102.254 29.2317 102.025 28.5677C101.797 27.9037 101.467 27.3931 101.038 27.036C100.608 26.6788 100.081 26.5003 99.4558 26.5003C98.842 26.5003 98.3119 26.6788 97.8655 27.036C97.4191 27.3931 97.0759 27.9037 96.836 28.5677C96.596 29.2317 96.476 30.0269 96.476 30.9532C96.476 31.8572 96.596 32.6384 96.836 33.2969C97.0759 33.9553 97.4191 34.4659 97.8655 34.8286C98.3119 35.1913 98.842 35.3727 99.4558 35.3727Z" fill="#0d4abc" fill-rule="nonzero" opacity="1" stroke="none"/>
<path d="M68.5867 47.2918L68.5867 21.5786L75.2493 21.5786L75.2493 24.8597L75.4167 24.8597C75.6622 24.2236 76.0194 23.6377 76.4881 23.102C76.9568 22.5663 77.5399 22.1394 78.2375 21.8214C78.935 21.5033 79.7469 21.3443 80.6732 21.3443C81.912 21.3443 83.0866 21.6735 84.197 22.3319C85.3075 22.9904 86.2142 24.0255 86.9173 25.4373C87.6204 26.849 87.972 28.6877 87.972 30.9532C87.972 33.1071 87.6371 34.8928 86.9675 36.3101C86.2979 37.7275 85.4051 38.7849 84.2891 39.4824C83.1731 40.1799 81.9454 40.5287 80.6062 40.5287C79.7357 40.5287 78.9573 40.3836 78.2709 40.0934C77.5846 39.8033 77.0015 39.4099 76.5216 38.9132C76.0417 38.4166 75.6734 37.8502 75.4167 37.2141L75.3163 37.2141L75.3163 47.2918L68.5867 47.2918ZM78.1286 35.3727C78.7536 35.3727 79.2809 35.1969 79.7106 34.8453C80.1403 34.4938 80.4695 33.986 80.6983 33.322C80.9271 32.6579 81.0415 31.8683 81.0415 30.9532C81.0415 30.0269 80.9271 29.2317 80.6983 28.5677C80.4695 27.9037 80.1403 27.3931 79.7106 27.036C79.2809 26.6788 78.7536 26.5003 78.1286 26.5003C77.5148 26.5003 76.9847 26.6788 76.5383 27.036C76.0919 27.3931 75.7487 27.9037 75.5088 28.5677C75.2688 29.2317 75.1489 30.0269 75.1489 30.9532C75.1489 31.8572 75.2688 32.6384 75.5088 33.2969C75.7487 33.9553 76.0919 34.4659 76.5383 34.8286C76.9847 35.1913 77.5148 35.3727 78.1286 35.3727Z" fill="#0d4abc" fill-rule="nonzero" opacity="1" stroke="none"/>
<path d="M54.1565 40.5956C52.9624 40.5956 51.9049 40.3975 50.9842 40.0014C50.0635 39.6052 49.3464 39.0053 48.8331 38.2018C48.3197 37.3982 48.063 36.3771 48.063 35.1383C48.063 34.1116 48.236 33.2355 48.582 32.5101C48.9279 31.7846 49.4134 31.1904 50.0384 30.7272C50.6633 30.2641 51.3916 29.9069 52.223 29.6558C53.0544 29.4047 53.9556 29.2457 54.9265 29.1787C55.9756 29.1006 56.8154 29.0058 57.446 28.8942C58.0765 28.7825 58.5341 28.6179 58.8187 28.4003C59.1033 28.1827 59.2456 27.8953 59.2456 27.5382L59.2456 27.4712C59.2456 26.9913 59.0614 26.6203 58.6931 26.358C58.3248 26.0957 57.8505 25.9646 57.2702 25.9646C56.6229 25.9646 56.0984 26.1041 55.6966 26.3831C55.2948 26.6621 55.0493 27.0918 54.96 27.6721L48.7996 27.6721C48.8777 26.5338 49.2376 25.4847 49.8793 24.5249C50.5211 23.5651 51.4641 22.7951 52.7085 22.2148C53.9528 21.6344 55.5069 21.3443 57.3706 21.3443C58.6987 21.3443 59.8928 21.5005 60.9531 21.813C62.0133 22.1255 62.9173 22.5607 63.665 23.1187C64.4127 23.6767 64.9847 24.3268 65.3809 25.069C65.7771 25.8111 65.9752 26.6119 65.9752 27.4712L65.9752 40.2943L59.6808 40.2943L59.6808 37.6493L59.5469 37.6493C59.1674 38.3524 58.7127 38.9188 58.1825 39.3485C57.6524 39.7782 57.0526 40.0934 56.383 40.2943C55.7133 40.4952 54.9712 40.5956 54.1565 40.5956ZM56.3327 36.3436C56.8461 36.3436 57.3288 36.2376 57.7808 36.0255C58.2328 35.8135 58.6011 35.5094 58.8856 35.1132C59.1702 34.717 59.3125 34.2343 59.3125 33.6651L59.3125 32.125C59.134 32.192 58.9442 32.259 58.7433 32.3259C58.5425 32.3929 58.3276 32.4543 58.0988 32.5101C57.8701 32.5659 57.6357 32.6161 57.3957 32.6607C57.1558 32.7054 56.9019 32.75 56.6341 32.7946C56.1095 32.8728 55.6827 33.0039 55.3534 33.188C55.0242 33.3722 54.7815 33.5954 54.6252 33.8577C54.469 34.1199 54.3909 34.4129 54.3909 34.7365C54.3909 35.2611 54.5722 35.66 54.9349 35.9335C55.2976 36.2069 55.7636 36.3436 56.3327 36.3436Z" fill="#0d4abc" fill-rule="nonzero" opacity="1" stroke="none"/>
<path d="M35.2734 40.2943L35.2734 21.5786L41.8021 21.5786L41.8021 25.1611L42.003 25.1611C42.349 23.833 42.8903 22.8648 43.6268 22.2566C44.3634 21.6484 45.2283 21.3443 46.2216 21.3443C46.7126 21.3443 47.1869 21.4056 47.6445 21.5284C48.1021 21.6512 48.5206 21.8242 48.9 22.0474L46.9582 27.5382C46.6791 27.4154 46.3918 27.3038 46.096 27.2034C45.8003 27.1029 45.4738 27.0471 45.1167 27.036C44.5587 27.036 44.0425 27.1811 43.5682 27.4712C43.0939 27.7614 42.7145 28.1687 42.4299 28.6933C42.1453 29.2178 42.003 29.8372 42.003 30.5514L42.003 40.2943L35.2734 40.2943Z" fill="#0d4abc" fill-rule="nonzero" opacity="1" stroke="none"/>
<path d="M33.3315 21.5786L33.3315 26.4668L21.0106 26.4668L21.0106 21.5786L33.3315 21.5786ZM23.3878 17.1257L30.1174 17.1257L30.1174 34.2678C30.1174 34.6584 30.2178 34.9514 30.4187 35.1467C30.6196 35.342 30.9432 35.4396 31.3896 35.4396C31.5905 35.4396 31.8277 35.4173 32.1011 35.3727C32.3745 35.328 32.5726 35.2834 32.6954 35.2387L33.6663 39.993C32.8963 40.205 32.1988 40.3557 31.5738 40.445C30.9488 40.5343 30.335 40.5789 29.7324 40.5789C27.6342 40.5789 26.0523 40.099 24.9865 39.1392C23.9207 38.1795 23.3878 36.7677 23.3878 34.9039L23.3878 17.1257Z" fill="#0d4abc" fill-rule="nonzero" opacity="1" stroke="none"/>
<path d="M10.1964 40.5956C8.03131 40.5956 6.14245 40.2748 4.52979 39.6331C2.91714 38.9914 1.66441 38.0009 0.771591 36.6617C-0.121226 35.3224-0.573215 33.6093-0.584375 31.5224L5.84391 31.5224C5.88855 32.2813 6.08107 32.923 6.42145 33.4475C6.76184 33.9721 7.24173 34.3682 7.86112 34.6361C8.48051 34.9039 9.22546 35.0379 10.096 35.0379C10.8214 35.0379 11.4296 34.9486 11.9206 34.77C12.4117 34.5914 12.7828 34.3431 13.0339 34.0251C13.285 33.707 13.4105 33.3415 13.4105 32.9286C13.4105 32.5491 13.2906 32.2171 13.0506 31.9325C12.8107 31.6479 12.4173 31.3885 11.8704 31.1541C11.3236 30.9197 10.587 30.7077 9.66071 30.518L7.14966 29.9823C4.95109 29.5135 3.21847 28.7128 1.95178 27.58C0.6851 26.4473 0.0517574 24.9044 0.0517574 22.9513C0.0517574 21.3666 0.481426 19.9799 1.34076 18.7914C2.2001 17.6028 3.38587 16.6765 4.89808 16.0125C6.41029 15.3484 8.15408 15.0164 10.1294 15.0164C12.1494 15.0164 13.8932 15.354 15.3608 16.0292C16.8284 16.7044 17.9611 17.653 18.7591 18.8751C19.557 20.0971 19.9616 21.5228 19.9727 23.1522L13.4775 23.1522C13.4217 22.3375 13.1232 21.7042 12.5819 21.2522C12.0406 20.8002 11.2231 20.5742 10.1294 20.5742C9.4375 20.5742 8.86833 20.6551 8.42192 20.8169C7.97551 20.9788 7.64629 21.2048 7.43424 21.4949C7.2222 21.7851 7.11618 22.1143 7.11618 22.4826C7.11618 22.8732 7.23057 23.2164 7.45935 23.5121C7.68814 23.8079 8.05084 24.0646 8.54747 24.2822C9.0441 24.4998 9.68303 24.6923 10.4642 24.8597L12.5066 25.295C13.8793 25.5851 15.0595 25.9702 16.0471 26.4501C17.0348 26.93 17.8439 27.4908 18.4745 28.1325C19.105 28.7742 19.5682 29.4968 19.8639 30.3003C20.1597 31.1039 20.3076 31.98 20.3076 32.9286C20.3076 34.5691 19.903 35.9614 19.0939 37.1053C18.2848 38.2492 17.1269 39.1169 15.6203 39.7084C14.1136 40.2999 12.3057 40.5956 10.1964 40.5956Z" fill="#0d4abc" fill-rule="nonzero" opacity="1" stroke="none"/>
</g>
</g>
</g>
</svg>
